# xmcd
#
# Track frame offsets:
# 150
# 23157
# 43847
# 65835
# 85450
# 102065
# 124722
# 142519
# 160487
# 180115
# 203657
# 223392
# 238179
# 261207
# 279041
#
# Disc length: 3921 seconds
#
#
# Revision: 0
# Processed by: cddbd v1.5.2PL0 Copyright (c) Steve Scherf et al.
# Submitted via: FreeRIP 2.951 
#
DISCID=d10f4f0f
DTITLE=Dr Dre - Exitos 2003
DYEAR=0009
DGENRE=Acid Punk
TTITLE0=Pit it me
TTITLE1=Next episody
TTITLE2=Natural born killer
TTITLE3=The mash
TTITLE4=Your Wife
TTITLE5=Puppet Master
TTITLE6=Let my Ride
TTITLE7=Just Dippin
TTITLE8=Ghetto Fabulous
TTITLE9=Been there done that
TTITLE10=Thin check
TTITLE11=Still big dogs
TTITLE12=Keep that heads ringin
TTITLE13=Symphony in x major
TTITLE14=On the boulevard
EXTD=
EXTT0=
EXTT1=
EXTT2=
EXTT3=
EXTT4=
EXTT5=
EXTT6=
EXTT7=
EXTT8=
EXTT9=
EXTT10=
EXTT11=
EXTT12=
EXTT13=
EXTT14=
PLAYORDER=
